<svg width="298" height="31" viewBox="0 0 298 31" fill="none" xmlns="http://www.w3.org/2000/svg">
<g clip-path="url(#clip0_1372_16)">
<path d="M5.05653 5.728V13.887H17.6435V18.643H5.05653V30H0.300528V0.972H19.4065V5.728H5.05653ZM48.7283 0.972L59.2243 30H54.2633L51.4343 22.456H41.0203L38.3963 30H33.3123L43.7673 0.972H48.7283ZM46.3093 5.769H46.1453L44.9563 10.443L42.6193 17.7H49.7943L47.4163 10.361L46.3093 5.769ZM90.1335 0.972L100.629 30H95.6685L92.8395 22.456H82.4255L79.8015 30H74.7175L85.1725 0.972H90.1335ZM87.7145 5.769H87.5505L86.3615 10.443L84.0245 17.7H91.1995L88.8215 10.361L87.7145 5.769ZM127.152 18.766H123.667V30H118.911V0.972H130.145C135.926 0.972 140.108 3.555 140.313 9.951C140.313 15.404 137.074 17.946 132.646 18.602L141.625 30H135.844L127.152 18.766ZM123.667 14.625H130.186C133.466 14.625 135.557 13.272 135.557 9.992C135.557 6.753 133.343 5.728 130.186 5.728H123.667V14.625ZM164.752 0.972V30H160.037V0.972H164.752ZM189.393 9.09C189.393 11.427 192.386 12.206 195.502 12.739C199.438 13.518 203.292 14.625 205.137 18.069C205.629 19.012 205.875 20.16 205.875 21.513C205.875 21.759 205.875 22.005 205.834 22.292C205.629 27.827 200.258 30.41 195.01 30.41C190.582 30.41 186.236 27.991 184.145 23.399L188.491 21.431C189.762 24.219 192.345 25.654 195.092 25.654C198.085 25.654 200.832 24.465 201.037 21.923V21.595C201.037 20.898 200.914 20.365 200.627 19.914C199.561 18.356 197.183 17.782 194.477 17.29C189.762 16.306 184.637 14.584 184.637 8.762C184.965 3.473 189.967 0.561998 195.051 0.561998C199.397 0.561998 203.538 2.243 205.506 6.835L201.201 8.762C199.93 6.015 197.716 5.318 195.051 5.318C192.263 5.318 189.393 6.63 189.393 9.09ZM224.403 27.253C224.403 25.572 225.674 24.26 227.355 24.26C229.036 24.26 230.348 25.572 230.348 27.253C230.348 28.934 229.036 30.246 227.355 30.246C225.674 30.246 224.403 28.934 224.403 27.253ZM255.094 0.972V30H250.379V0.972H255.094ZM276.168 0.972H286.582C292.24 0.972 297.447 3.76 297.447 10.115V21.021C297.447 27.376 292.24 30 286.582 30H276.168V0.972ZM280.883 25.244H286.582C289.862 25.244 292.691 24.096 292.691 21.021V10.115C292.691 6.999 289.862 5.728 286.582 5.728H280.883V25.244Z" fill="#74B9FF"/>
</g>
<defs>
<clipPath id="clip0_1372_16">
<rect width="298" height="31" fill="white"/>
</clipPath>
</defs>
</svg>
